<svg xmlns="http://www.w3.org/2000/svg" xmlns:xlink="http://www.w3.org/1999/xlink" width="600" height="400" viewBox="0 0 2400 1600">
<defs>
  <clipPath id="clip020">
    <rect x="0" y="0" width="2400" height="1600"></rect>
  </clipPath>
</defs>
<path clip-path="url(#clip020)" d="M0 1600 L2400 1600 L2400 8.88178e-14 L0 8.88178e-14  Z" fill="#ffffff" fill-rule="evenodd" fill-opacity="1"></path>
<defs>
  <clipPath id="clip021">
    <rect x="480" y="0" width="1681" height="1600"></rect>
  </clipPath>
</defs>
<path clip-path="url(#clip020)" d="M174.149 1423.18 L2352.76 1423.18 L2352.76 123.472 L174.149 123.472  Z" fill="#ffffff" fill-rule="evenodd" fill-opacity="1"></path>
<defs>
  <clipPath id="clip022">
    <rect x="174" y="123" width="2180" height="1301"></rect>
  </clipPath>
</defs>
<polyline clip-path="url(#clip022)" style="stroke:#000000; stroke-linecap:round; stroke-linejoin:round; stroke-width:2; stroke-opacity:0.1; fill:none" points="235.808,1423.18 235.808,123.472 "></polyline>
<polyline clip-path="url(#clip022)" style="stroke:#000000; stroke-linecap:round; stroke-linejoin:round; stroke-width:2; stroke-opacity:0.1; fill:none" points="655.254,1423.18 655.254,123.472 "></polyline>
<polyline clip-path="url(#clip022)" style="stroke:#000000; stroke-linecap:round; stroke-linejoin:round; stroke-width:2; stroke-opacity:0.1; fill:none" points="1074.7,1423.18 1074.7,123.472 "></polyline>
<polyline clip-path="url(#clip022)" style="stroke:#000000; stroke-linecap:round; stroke-linejoin:round; stroke-width:2; stroke-opacity:0.1; fill:none" points="1494.15,1423.18 1494.15,123.472 "></polyline>
<polyline clip-path="url(#clip022)" style="stroke:#000000; stroke-linecap:round; stroke-linejoin:round; stroke-width:2; stroke-opacity:0.1; fill:none" points="1913.6,1423.18 1913.6,123.472 "></polyline>
<polyline clip-path="url(#clip022)" style="stroke:#000000; stroke-linecap:round; stroke-linejoin:round; stroke-width:2; stroke-opacity:0.1; fill:none" points="2333.04,1423.18 2333.04,123.472 "></polyline>
<polyline clip-path="url(#clip022)" style="stroke:#000000; stroke-linecap:round; stroke-linejoin:round; stroke-width:2; stroke-opacity:0.1; fill:none" points="174.149,1422.46 2352.76,1422.46 "></polyline>
<polyline clip-path="url(#clip022)" style="stroke:#000000; stroke-linecap:round; stroke-linejoin:round; stroke-width:2; stroke-opacity:0.1; fill:none" points="174.149,1061.83 2352.76,1061.83 "></polyline>
<polyline clip-path="url(#clip022)" style="stroke:#000000; stroke-linecap:round; stroke-linejoin:round; stroke-width:2; stroke-opacity:0.1; fill:none" points="174.149,701.2 2352.76,701.2 "></polyline>
<polyline clip-path="url(#clip022)" style="stroke:#000000; stroke-linecap:round; stroke-linejoin:round; stroke-width:2; stroke-opacity:0.1; fill:none" points="174.149,340.571 2352.76,340.571 "></polyline>
<polyline clip-path="url(#clip020)" style="stroke:#000000; stroke-linecap:round; stroke-linejoin:round; stroke-width:4; stroke-opacity:1; fill:none" points="174.149,1423.18 2352.76,1423.18 "></polyline>
<polyline clip-path="url(#clip020)" style="stroke:#000000; stroke-linecap:round; stroke-linejoin:round; stroke-width:4; stroke-opacity:1; fill:none" points="235.808,1423.18 235.808,1404.28 "></polyline>
<polyline clip-path="url(#clip020)" style="stroke:#000000; stroke-linecap:round; stroke-linejoin:round; stroke-width:4; stroke-opacity:1; fill:none" points="655.254,1423.18 655.254,1404.28 "></polyline>
<polyline clip-path="url(#clip020)" style="stroke:#000000; stroke-linecap:round; stroke-linejoin:round; stroke-width:4; stroke-opacity:1; fill:none" points="1074.7,1423.18 1074.7,1404.28 "></polyline>
<polyline clip-path="url(#clip020)" style="stroke:#000000; stroke-linecap:round; stroke-linejoin:round; stroke-width:4; stroke-opacity:1; fill:none" points="1494.15,1423.18 1494.15,1404.28 "></polyline>
<polyline clip-path="url(#clip020)" style="stroke:#000000; stroke-linecap:round; stroke-linejoin:round; stroke-width:4; stroke-opacity:1; fill:none" points="1913.6,1423.18 1913.6,1404.28 "></polyline>
<polyline clip-path="url(#clip020)" style="stroke:#000000; stroke-linecap:round; stroke-linejoin:round; stroke-width:4; stroke-opacity:1; fill:none" points="2333.04,1423.18 2333.04,1404.28 "></polyline>
<path clip-path="url(#clip020)" d="M235.808 1454.1 Q232.197 1454.1 230.368 1457.66 Q228.562 1461.2 228.562 1468.33 Q228.562 1475.44 230.368 1479.01 Q232.197 1482.55 235.808 1482.55 Q239.442 1482.55 241.247 1479.01 Q243.076 1475.44 243.076 1468.33 Q243.076 1461.2 241.247 1457.66 Q239.442 1454.1 235.808 1454.1 M235.808 1450.39 Q241.618 1450.39 244.673 1455 Q247.752 1459.58 247.752 1468.33 Q247.752 1477.06 244.673 1481.67 Q241.618 1486.25 235.808 1486.25 Q229.997 1486.25 226.919 1481.67 Q223.863 1477.06 223.863 1468.33 Q223.863 1459.58 226.919 1455 Q229.997 1450.39 235.808 1450.39 Z" fill="#000000" fill-rule="nonzero" fill-opacity="1"></path><path clip-path="url(#clip020)" d="M629.942 1481.64 L637.581 1481.64 L637.581 1455.28 L629.271 1456.95 L629.271 1452.69 L637.535 1451.02 L642.211 1451.02 L642.211 1481.64 L649.849 1481.64 L649.849 1485.58 L629.942 1485.58 L629.942 1481.64 Z" fill="#000000" fill-rule="nonzero" fill-opacity="1"></path><path clip-path="url(#clip020)" d="M669.294 1454.1 Q665.683 1454.1 663.854 1457.66 Q662.048 1461.2 662.048 1468.33 Q662.048 1475.44 663.854 1479.01 Q665.683 1482.55 669.294 1482.55 Q672.928 1482.55 674.734 1479.01 Q676.562 1475.44 676.562 1468.33 Q676.562 1461.2 674.734 1457.66 Q672.928 1454.1 669.294 1454.1 M669.294 1450.39 Q675.104 1450.39 678.159 1455 Q681.238 1459.58 681.238 1468.33 Q681.238 1477.06 678.159 1481.67 Q675.104 1486.25 669.294 1486.25 Q663.484 1486.25 660.405 1481.67 Q657.349 1477.06 657.349 1468.33 Q657.349 1459.58 660.405 1455 Q663.484 1450.39 669.294 1450.39 Z" fill="#000000" fill-rule="nonzero" fill-opacity="1"></path><path clip-path="url(#clip020)" d="M1053.47 1481.64 L1069.79 1481.64 L1069.79 1485.58 L1047.85 1485.58 L1047.85 1481.64 Q1050.51 1478.89 1055.09 1474.26 Q1059.7 1469.61 1060.88 1468.27 Q1063.13 1465.74 1064.01 1464.01 Q1064.91 1462.25 1064.91 1460.56 Q1064.91 1457.8 1062.97 1456.07 Q1061.04 1454.33 1057.94 1454.33 Q1055.74 1454.33 1053.29 1455.09 Q1050.86 1455.86 1048.08 1457.41 L1048.08 1452.69 Q1050.91 1451.55 1053.36 1450.97 Q1055.81 1450.39 1057.85 1450.39 Q1063.22 1450.39 1066.41 1453.08 Q1069.61 1455.77 1069.61 1460.26 Q1069.61 1462.39 1068.8 1464.31 Q1068.01 1466.2 1065.91 1468.8 Q1065.33 1469.47 1062.22 1472.69 Q1059.12 1475.88 1053.47 1481.64 Z" fill="#000000" fill-rule="nonzero" fill-opacity="1"></path><path clip-path="url(#clip020)" d="M1089.61 1454.1 Q1086 1454.1 1084.17 1457.66 Q1082.36 1461.2 1082.36 1468.33 Q1082.36 1475.44 1084.17 1479.01 Q1086 1482.55 1089.61 1482.55 Q1093.24 1482.55 1095.05 1479.01 Q1096.88 1475.44 1096.88 1468.33 Q1096.88 1461.2 1095.05 1457.66 Q1093.24 1454.1 1089.61 1454.1 M1089.61 1450.39 Q1095.42 1450.39 1098.47 1455 Q1101.55 1459.58 1101.55 1468.33 Q1101.55 1477.06 1098.47 1481.67 Q1095.42 1486.25 1089.61 1486.25 Q1083.8 1486.25 1080.72 1481.67 Q1077.66 1477.06 1077.66 1468.33 Q1077.66 1459.58 1080.72 1455 Q1083.8 1450.39 1089.61 1450.39 Z" fill="#000000" fill-rule="nonzero" fill-opacity="1"></path><path clip-path="url(#clip020)" d="M1482.99 1466.95 Q1486.35 1467.66 1488.22 1469.93 Q1490.12 1472.2 1490.12 1475.53 Q1490.12 1480.65 1486.6 1483.45 Q1483.08 1486.25 1476.6 1486.25 Q1474.43 1486.25 1472.11 1485.81 Q1469.82 1485.39 1467.37 1484.54 L1467.37 1480.02 Q1469.31 1481.16 1471.63 1481.74 Q1473.94 1482.32 1476.46 1482.32 Q1480.86 1482.32 1483.15 1480.58 Q1485.47 1478.84 1485.47 1475.53 Q1485.47 1472.48 1483.31 1470.77 Q1481.19 1469.03 1477.37 1469.03 L1473.34 1469.03 L1473.34 1465.19 L1477.55 1465.19 Q1481 1465.19 1482.83 1463.82 Q1484.66 1462.43 1484.66 1459.84 Q1484.66 1457.18 1482.76 1455.77 Q1480.88 1454.33 1477.37 1454.33 Q1475.44 1454.33 1473.25 1454.75 Q1471.05 1455.16 1468.41 1456.04 L1468.41 1451.88 Q1471.07 1451.14 1473.38 1450.77 Q1475.72 1450.39 1477.78 1450.39 Q1483.11 1450.39 1486.21 1452.83 Q1489.31 1455.23 1489.31 1459.35 Q1489.31 1462.22 1487.67 1464.21 Q1486.02 1466.18 1482.99 1466.95 Z" fill="#000000" fill-rule="nonzero" fill-opacity="1"></path><path clip-path="url(#clip020)" d="M1508.99 1454.1 Q1505.37 1454.1 1503.55 1457.66 Q1501.74 1461.2 1501.74 1468.33 Q1501.74 1475.44 1503.55 1479.01 Q1505.37 1482.55 1508.99 1482.55 Q1512.62 1482.55 1514.43 1479.01 Q1516.25 1475.44 1516.25 1468.33 Q1516.25 1461.2 1514.43 1457.66 Q1512.62 1454.1 1508.99 1454.1 M1508.99 1450.39 Q1514.8 1450.39 1517.85 1455 Q1520.93 1459.58 1520.93 1468.33 Q1520.93 1477.06 1517.85 1481.67 Q1514.8 1486.25 1508.99 1486.25 Q1503.18 1486.25 1500.1 1481.67 Q1497.04 1477.06 1497.04 1468.33 Q1497.04 1459.58 1500.1 1455 Q1503.18 1450.39 1508.99 1450.39 Z" fill="#000000" fill-rule="nonzero" fill-opacity="1"></path><path clip-path="url(#clip020)" d="M1901.77 1455.09 L1889.96 1473.54 L1901.77 1473.54 L1901.77 1455.09 M1900.54 1451.02 L1906.42 1451.02 L1906.42 1473.54 L1911.35 1473.54 L1911.35 1477.43 L1906.42 1477.43 L1906.42 1485.58 L1901.77 1485.58 L1901.77 1477.43 L1886.16 1477.43 L1886.16 1472.92 L1900.54 1451.02 Z" fill="#000000" fill-rule="nonzero" fill-opacity="1"></path><path clip-path="url(#clip020)" d="M1929.08 1454.1 Q1925.47 1454.1 1923.64 1457.66 Q1921.84 1461.2 1921.84 1468.33 Q1921.84 1475.44 1923.64 1479.01 Q1925.47 1482.55 1929.08 1482.55 Q1932.72 1482.55 1934.52 1479.01 Q1936.35 1475.44 1936.35 1468.33 Q1936.35 1461.2 1934.52 1457.66 Q1932.72 1454.1 1929.08 1454.1 M1929.08 1450.39 Q1934.89 1450.39 1937.95 1455 Q1941.03 1459.58 1941.03 1468.33 Q1941.03 1477.06 1937.95 1481.67 Q1934.89 1486.25 1929.08 1486.25 Q1923.27 1486.25 1920.19 1481.67 Q1917.14 1477.06 1917.14 1468.33 Q1917.14 1459.58 1920.19 1455 Q1923.27 1450.39 1929.08 1450.39 Z" fill="#000000" fill-rule="nonzero" fill-opacity="1"></path><path clip-path="url(#clip020)" d="M2307.74 1451.02 L2326.1 1451.02 L2326.1 1454.96 L2312.02 1454.96 L2312.02 1463.43 Q2313.04 1463.08 2314.06 1462.92 Q2315.08 1462.73 2316.1 1462.73 Q2321.88 1462.73 2325.26 1465.9 Q2328.64 1469.08 2328.64 1474.49 Q2328.64 1480.07 2325.17 1483.17 Q2321.7 1486.25 2315.38 1486.25 Q2313.2 1486.25 2310.94 1485.88 Q2308.69 1485.51 2306.28 1484.77 L2306.28 1480.07 Q2308.37 1481.2 2310.59 1481.76 Q2312.81 1482.32 2315.29 1482.32 Q2319.29 1482.32 2321.63 1480.21 Q2323.97 1478.1 2323.97 1474.49 Q2323.97 1470.88 2321.63 1468.77 Q2319.29 1466.67 2315.29 1466.67 Q2313.41 1466.67 2311.54 1467.08 Q2309.69 1467.5 2307.74 1468.38 L2307.74 1451.02 Z" fill="#000000" fill-rule="nonzero" fill-opacity="1"></path><path clip-path="url(#clip020)" d="M2347.86 1454.1 Q2344.25 1454.1 2342.42 1457.66 Q2340.61 1461.2 2340.61 1468.33 Q2340.61 1475.44 2342.42 1479.01 Q2344.25 1482.55 2347.86 1482.55 Q2351.49 1482.55 2353.3 1479.01 Q2355.13 1475.44 2355.13 1468.33 Q2355.13 1461.2 2353.3 1457.66 Q2351.49 1454.1 2347.86 1454.1 M2347.86 1450.39 Q2353.67 1450.39 2356.72 1455 Q2359.8 1459.58 2359.8 1468.33 Q2359.8 1477.06 2356.72 1481.67 Q2353.67 1486.25 2347.86 1486.25 Q2342.05 1486.25 2338.97 1481.67 Q2335.91 1477.06 2335.91 1468.33 Q2335.91 1459.58 2338.97 1455 Q2342.05 1450.39 2347.86 1450.39 Z" fill="#000000" fill-rule="nonzero" fill-opacity="1"></path><path clip-path="url(#clip020)" d="M1137.83 1520.52 L1178.02 1520.52 L1178.02 1525.93 L1161.16 1525.93 L1161.16 1568.04 L1154.69 1568.04 L1154.69 1525.93 L1137.83 1525.93 L1137.83 1520.52 Z" fill="#000000" fill-rule="nonzero" fill-opacity="1"></path><path clip-path="url(#clip020)" d="M1181.97 1532.4 L1187.83 1532.4 L1187.83 1568.04 L1181.97 1568.04 L1181.97 1532.4 M1181.97 1518.52 L1187.83 1518.52 L1187.83 1525.93 L1181.97 1525.93 L1181.97 1518.52 Z" fill="#000000" fill-rule="nonzero" fill-opacity="1"></path><path clip-path="url(#clip020)" d="M1227.84 1539.24 Q1230.03 1535.29 1233.09 1533.41 Q1236.14 1531.54 1240.28 1531.54 Q1245.85 1531.54 1248.87 1535.45 Q1251.9 1539.33 1251.9 1546.53 L1251.9 1568.04 L1246.01 1568.04 L1246.01 1546.72 Q1246.01 1541.59 1244.2 1539.11 Q1242.38 1536.63 1238.66 1536.63 Q1234.11 1536.63 1231.46 1539.65 Q1228.82 1542.68 1228.82 1547.9 L1228.82 1568.04 L1222.93 1568.04 L1222.93 1546.72 Q1222.93 1541.56 1221.12 1539.11 Q1219.31 1536.63 1215.52 1536.63 Q1211.03 1536.63 1208.39 1539.68 Q1205.75 1542.71 1205.75 1547.9 L1205.75 1568.04 L1199.86 1568.04 L1199.86 1532.4 L1205.75 1532.4 L1205.75 1537.93 Q1207.75 1534.66 1210.55 1533.1 Q1213.35 1531.54 1217.21 1531.54 Q1221.09 1531.54 1223.79 1533.51 Q1226.53 1535.48 1227.84 1539.24 Z" fill="#000000" fill-rule="nonzero" fill-opacity="1"></path><path clip-path="url(#clip020)" d="M1294.07 1548.76 L1294.07 1551.62 L1267.14 1551.62 Q1267.53 1557.67 1270.77 1560.85 Q1274.05 1564 1279.88 1564 Q1283.25 1564 1286.4 1563.17 Q1289.58 1562.35 1292.7 1560.69 L1292.7 1566.23 Q1289.55 1567.57 1286.24 1568.27 Q1282.93 1568.97 1279.53 1568.97 Q1271 1568.97 1266 1564 Q1261.03 1559.04 1261.03 1550.57 Q1261.03 1541.82 1265.74 1536.69 Q1270.49 1531.54 1278.51 1531.54 Q1285.7 1531.54 1289.87 1536.18 Q1294.07 1540.8 1294.07 1548.76 M1288.22 1547.04 Q1288.15 1542.23 1285.51 1539.37 Q1282.9 1536.5 1278.57 1536.5 Q1273.67 1536.5 1270.71 1539.27 Q1267.78 1542.04 1267.34 1547.07 L1288.22 1547.04 Z" fill="#000000" fill-rule="nonzero" fill-opacity="1"></path><path clip-path="url(#clip020)" d="M1338.47 1518.58 Q1334.21 1525.9 1332.14 1533.06 Q1330.07 1540.23 1330.07 1547.58 Q1330.07 1554.93 1332.14 1562.16 Q1334.24 1569.35 1338.47 1576.64 L1333.38 1576.64 Q1328.61 1569.16 1326.22 1561.93 Q1323.86 1554.71 1323.86 1547.58 Q1323.86 1540.48 1326.22 1533.29 Q1328.57 1526.09 1333.38 1518.58 L1338.47 1518.58 Z" fill="#000000" fill-rule="nonzero" fill-opacity="1"></path><path clip-path="url(#clip020)" d="M1355.63 1522.27 L1355.63 1532.4 L1367.69 1532.4 L1367.69 1536.95 L1355.63 1536.95 L1355.63 1556.3 Q1355.63 1560.66 1356.81 1561.9 Q1358.01 1563.14 1361.68 1563.14 L1367.69 1563.14 L1367.69 1568.04 L1361.68 1568.04 Q1354.9 1568.04 1352.32 1565.53 Q1349.74 1562.98 1349.74 1556.3 L1349.74 1536.95 L1345.44 1536.95 L1345.44 1532.4 L1349.74 1532.4 L1349.74 1522.27 L1355.63 1522.27 Z" fill="#000000" fill-rule="nonzero" fill-opacity="1"></path><path clip-path="url(#clip020)" d="M1374.47 1518.58 L1379.56 1518.58 Q1384.34 1526.09 1386.69 1533.29 Q1389.08 1540.48 1389.08 1547.58 Q1389.08 1554.71 1386.69 1561.93 Q1384.34 1569.16 1379.56 1576.64 L1374.47 1576.64 Q1378.7 1569.35 1380.77 1562.16 Q1382.87 1554.93 1382.87 1547.58 Q1382.87 1540.23 1380.77 1533.06 Q1378.7 1525.9 1374.47 1518.58 Z" fill="#000000" fill-rule="nonzero" fill-opacity="1"></path><polyline clip-path="url(#clip020)" style="stroke:#000000; stroke-linecap:round; stroke-linejoin:round; stroke-width:4; stroke-opacity:1; fill:none" points="174.149,1423.18 174.149,123.472 "></polyline>
<polyline clip-path="url(#clip020)" style="stroke:#000000; stroke-linecap:round; stroke-linejoin:round; stroke-width:4; stroke-opacity:1; fill:none" points="174.149,1422.46 193.047,1422.46 "></polyline>
<polyline clip-path="url(#clip020)" style="stroke:#000000; stroke-linecap:round; stroke-linejoin:round; stroke-width:4; stroke-opacity:1; fill:none" points="174.149,1061.83 193.047,1061.83 "></polyline>
<polyline clip-path="url(#clip020)" style="stroke:#000000; stroke-linecap:round; stroke-linejoin:round; stroke-width:4; stroke-opacity:1; fill:none" points="174.149,701.2 193.047,701.2 "></polyline>
<polyline clip-path="url(#clip020)" style="stroke:#000000; stroke-linecap:round; stroke-linejoin:round; stroke-width:4; stroke-opacity:1; fill:none" points="174.149,340.571 193.047,340.571 "></polyline>
<path clip-path="url(#clip020)" d="M126.205 1408.26 Q122.593 1408.26 120.765 1411.82 Q118.959 1415.36 118.959 1422.49 Q118.959 1429.6 120.765 1433.16 Q122.593 1436.71 126.205 1436.71 Q129.839 1436.71 131.644 1433.16 Q133.473 1429.6 133.473 1422.49 Q133.473 1415.36 131.644 1411.82 Q129.839 1408.26 126.205 1408.26 M126.205 1404.55 Q132.015 1404.55 135.07 1409.16 Q138.149 1413.74 138.149 1422.49 Q138.149 1431.22 135.07 1435.83 Q132.015 1440.41 126.205 1440.41 Q120.394 1440.41 117.316 1435.83 Q114.26 1431.22 114.26 1422.49 Q114.26 1413.74 117.316 1409.16 Q120.394 1404.55 126.205 1404.55 Z" fill="#000000" fill-rule="nonzero" fill-opacity="1"></path><path clip-path="url(#clip020)" d="M118.242 1075.17 L125.88 1075.17 L125.88 1048.81 L117.57 1050.48 L117.57 1046.22 L125.834 1044.55 L130.51 1044.55 L130.51 1075.17 L138.149 1075.17 L138.149 1079.11 L118.242 1079.11 L118.242 1075.17 Z" fill="#000000" fill-rule="nonzero" fill-opacity="1"></path><path clip-path="url(#clip020)" d="M121.83 714.545 L138.149 714.545 L138.149 718.48 L116.205 718.48 L116.205 714.545 Q118.867 711.79 123.45 707.161 Q128.056 702.508 129.237 701.165 Q131.482 698.642 132.362 696.906 Q133.265 695.147 133.265 693.457 Q133.265 690.703 131.32 688.966 Q129.399 687.23 126.297 687.23 Q124.098 687.23 121.644 687.994 Q119.214 688.758 116.436 690.309 L116.436 685.587 Q119.26 684.453 121.714 683.874 Q124.168 683.295 126.205 683.295 Q131.575 683.295 134.769 685.98 Q137.964 688.665 137.964 693.156 Q137.964 695.286 137.154 697.207 Q136.367 699.105 134.26 701.698 Q133.681 702.369 130.58 705.587 Q127.478 708.781 121.83 714.545 Z" fill="#000000" fill-rule="nonzero" fill-opacity="1"></path><path clip-path="url(#clip020)" d="M131.019 339.217 Q134.376 339.934 136.251 342.203 Q138.149 344.471 138.149 347.805 Q138.149 352.92 134.63 355.721 Q131.112 358.522 124.63 358.522 Q122.455 358.522 120.14 358.082 Q117.848 357.666 115.394 356.809 L115.394 352.295 Q117.339 353.43 119.654 354.008 Q121.968 354.587 124.492 354.587 Q128.89 354.587 131.181 352.851 Q133.496 351.115 133.496 347.805 Q133.496 344.749 131.343 343.036 Q129.214 341.3 125.394 341.3 L121.367 341.3 L121.367 337.458 L125.58 337.458 Q129.029 337.458 130.857 336.092 Q132.686 334.703 132.686 332.11 Q132.686 329.448 130.788 328.036 Q128.913 326.601 125.394 326.601 Q123.473 326.601 121.274 327.018 Q119.075 327.434 116.436 328.314 L116.436 324.147 Q119.098 323.407 121.413 323.036 Q123.751 322.666 125.811 322.666 Q131.135 322.666 134.237 325.096 Q137.339 327.504 137.339 331.624 Q137.339 334.495 135.695 336.485 Q134.052 338.453 131.019 339.217 Z" fill="#000000" fill-rule="nonzero" fill-opacity="1"></path><path clip-path="url(#clip020)" d="M20.1444 908.931 L26.9239 908.931 Q23.9002 912.178 22.4043 915.87 Q20.9083 919.53 20.9083 923.668 Q20.9083 931.816 25.9054 936.145 Q30.8707 940.474 40.2919 940.474 Q49.6813 940.474 54.6784 936.145 Q59.6436 931.816 59.6436 923.668 Q59.6436 919.53 58.1477 915.87 Q56.6518 912.178 53.6281 908.931 L60.3439 908.931 Q62.6355 912.305 63.7814 916.093 Q64.9272 919.849 64.9272 924.05 Q64.9272 934.84 58.3387 941.046 Q51.7183 947.253 40.2919 947.253 Q28.8336 947.253 22.2451 941.046 Q15.6248 934.84 15.6248 924.05 Q15.6248 919.785 16.7706 916.029 Q17.8846 912.242 20.1444 908.931 Z" fill="#000000" fill-rule="nonzero" fill-opacity="1"></path><path clip-path="url(#clip020)" d="M46.0847 883.055 Q46.0847 890.153 47.7079 892.89 Q49.3312 895.627 53.2461 895.627 Q56.3653 895.627 58.2114 893.59 Q60.0256 891.521 60.0256 887.988 Q60.0256 883.119 56.5881 880.19 Q53.1188 877.23 47.3897 877.23 L46.0847 877.23 L46.0847 883.055 M43.6657 871.374 L64.0042 871.374 L64.0042 877.23 L58.5933 877.23 Q61.8398 879.235 63.3994 882.227 Q64.9272 885.219 64.9272 889.548 Q64.9272 895.022 61.8716 898.269 Q58.7843 901.484 53.6281 901.484 Q47.6125 901.484 44.5569 897.473 Q41.5014 893.431 41.5014 885.442 L41.5014 877.23 L40.9285 877.23 Q36.8862 877.23 34.6901 879.904 Q32.4621 882.546 32.4621 887.352 Q32.4621 890.407 33.1941 893.304 Q33.9262 896.2 35.3903 898.874 L29.9795 898.874 Q28.7381 895.659 28.1334 892.635 Q27.4968 889.612 27.4968 886.747 Q27.4968 879.013 31.5072 875.193 Q35.5176 871.374 43.6657 871.374 Z" fill="#000000" fill-rule="nonzero" fill-opacity="1"></path><path clip-path="url(#clip020)" d="M58.657 853.645 L77.5631 853.645 L77.5631 859.534 L28.3562 859.534 L28.3562 853.645 L33.7671 853.645 Q30.5842 851.799 29.0564 848.998 Q27.4968 846.166 27.4968 842.251 Q27.4968 835.758 32.6531 831.715 Q37.8093 827.641 46.212 827.641 Q54.6147 827.641 59.771 831.715 Q64.9272 835.758 64.9272 842.251 Q64.9272 846.166 63.3994 848.998 Q61.8398 851.799 58.657 853.645 M46.212 833.721 Q39.7508 833.721 36.0905 836.394 Q32.3984 839.036 32.3984 843.683 Q32.3984 848.33 36.0905 851.004 Q39.7508 853.645 46.212 853.645 Q52.6732 853.645 56.3653 851.004 Q60.0256 848.33 60.0256 843.683 Q60.0256 839.036 56.3653 836.394 Q52.6732 833.721 46.212 833.721 Z" fill="#000000" fill-rule="nonzero" fill-opacity="1"></path><path clip-path="url(#clip020)" d="M28.3562 817.934 L28.3562 812.077 L64.0042 812.077 L64.0042 817.934 L28.3562 817.934 M14.479 817.934 L14.479 812.077 L21.895 812.077 L21.895 817.934 L14.479 817.934 Z" fill="#000000" fill-rule="nonzero" fill-opacity="1"></path><path clip-path="url(#clip020)" d="M18.2347 794.03 L28.3562 794.03 L28.3562 781.967 L32.9077 781.967 L32.9077 794.03 L52.2594 794.03 Q56.6199 794.03 57.8613 792.853 Q59.1026 791.643 59.1026 787.983 L59.1026 781.967 L64.0042 781.967 L64.0042 787.983 Q64.0042 794.763 61.4897 797.341 Q58.9434 799.919 52.2594 799.919 L32.9077 799.919 L32.9077 804.216 L28.3562 804.216 L28.3562 799.919 L18.2347 799.919 L18.2347 794.03 Z" fill="#000000" fill-rule="nonzero" fill-opacity="1"></path><path clip-path="url(#clip020)" d="M46.0847 758.064 Q46.0847 765.162 47.7079 767.899 Q49.3312 770.636 53.2461 770.636 Q56.3653 770.636 58.2114 768.599 Q60.0256 766.531 60.0256 762.998 Q60.0256 758.128 56.5881 755.2 Q53.1188 752.24 47.3897 752.24 L46.0847 752.24 L46.0847 758.064 M43.6657 746.383 L64.0042 746.383 L64.0042 752.24 L58.5933 752.24 Q61.8398 754.245 63.3994 757.237 Q64.9272 760.229 64.9272 764.557 Q64.9272 770.032 61.8716 773.278 Q58.7843 776.493 53.6281 776.493 Q47.6125 776.493 44.5569 772.483 Q41.5014 768.44 41.5014 760.451 L41.5014 752.24 L40.9285 752.24 Q36.8862 752.24 34.6901 754.913 Q32.4621 757.555 32.4621 762.361 Q32.4621 765.417 33.1941 768.313 Q33.9262 771.209 35.3903 773.883 L29.9795 773.883 Q28.7381 770.668 28.1334 767.645 Q27.4968 764.621 27.4968 761.756 Q27.4968 754.022 31.5072 750.203 Q35.5176 746.383 43.6657 746.383 Z" fill="#000000" fill-rule="nonzero" fill-opacity="1"></path><path clip-path="url(#clip020)" d="M14.479 734.32 L14.479 728.464 L64.0042 728.464 L64.0042 734.32 L14.479 734.32 Z" fill="#000000" fill-rule="nonzero" fill-opacity="1"></path><path clip-path="url(#clip020)" d="M14.5426 681.421 Q21.8632 685.686 29.0246 687.755 Q36.186 689.824 43.5384 689.824 Q50.8908 689.824 58.1159 687.755 Q65.3091 685.654 72.5979 681.421 L72.5979 686.514 Q65.1182 691.288 57.8931 693.675 Q50.668 696.03 43.5384 696.03 Q36.4406 696.03 29.2474 693.675 Q22.0542 691.32 14.5426 686.514 L14.5426 681.421 Z" fill="#000000" fill-rule="nonzero" fill-opacity="1"></path><path clip-path="url(#clip020)" d="M14.479 670.281 L14.479 664.393 L43.7294 664.393 L28.3562 646.919 L28.3562 639.439 L45.0344 658.345 L64.0042 638.644 L64.0042 646.282 L46.5939 664.393 L64.0042 664.393 L64.0042 670.281 L14.479 670.281 Z" fill="#000000" fill-rule="nonzero" fill-opacity="1"></path><path clip-path="url(#clip020)" d="M38.3822 630.941 L44.0477 630.941 L44.0477 623.334 L46.5939 623.334 L46.5939 630.941 L57.4157 630.941 Q59.8664 630.941 60.5667 630.177 Q61.2669 629.413 61.2669 627.122 L61.2669 623.334 L64.0042 623.334 L64.0042 627.122 Q64.0042 631.387 62.5719 633.01 Q61.1714 634.633 57.4157 634.633 L46.5939 634.633 L46.5939 637.339 L44.0477 637.339 L44.0477 634.633 L38.3822 634.633 L38.3822 630.941 Z" fill="#000000" fill-rule="nonzero" fill-opacity="1"></path><path clip-path="url(#clip020)" d="M14.5426 614.008 L14.5426 608.916 Q22.0542 604.141 29.2474 601.786 Q36.4406 599.399 43.5384 599.399 Q50.668 599.399 57.8931 601.786 Q65.1182 604.141 72.5979 608.916 L72.5979 614.008 Q65.3091 609.775 58.1159 607.706 Q50.8908 605.606 43.5384 605.606 Q36.186 605.606 29.0246 607.706 Q21.8632 609.775 14.5426 614.008 Z" fill="#000000" fill-rule="nonzero" fill-opacity="1"></path><path clip-path="url(#clip020)" d="M846.614 16.7545 L846.614 25.383 Q842.482 21.5346 837.783 19.6307 Q833.125 17.7268 827.859 17.7268 Q817.488 17.7268 811.979 24.0867 Q806.47 30.4061 806.47 42.3968 Q806.47 54.3469 811.979 60.7069 Q817.488 67.0263 827.859 67.0263 Q833.125 67.0263 837.783 65.1223 Q842.482 63.2184 846.614 59.3701 L846.614 67.9175 Q842.32 70.8341 837.5 72.2924 Q832.72 73.7508 827.373 73.7508 Q813.64 73.7508 805.741 65.3654 Q797.841 56.9395 797.841 42.3968 Q797.841 27.8135 805.741 19.4281 Q813.64 11.0023 827.373 11.0023 Q832.801 11.0023 837.581 12.4606 Q842.401 13.8784 846.614 16.7545 Z" fill="#000000" fill-rule="nonzero" fill-opacity="1"></path><path clip-path="url(#clip020)" d="M879.548 49.7694 Q870.515 49.7694 867.031 51.8354 Q863.547 53.9013 863.547 58.8839 Q863.547 62.8538 866.14 65.2034 Q868.773 67.5124 873.269 67.5124 Q879.467 67.5124 883.194 63.1374 Q886.961 58.7219 886.961 51.4303 L886.961 49.7694 L879.548 49.7694 M894.415 46.6907 L894.415 72.576 L886.961 72.576 L886.961 65.6895 Q884.409 69.8214 880.601 71.8063 Q876.794 73.7508 871.284 73.7508 Q864.317 73.7508 860.185 69.8619 Q856.093 65.9325 856.093 59.3701 Q856.093 51.7138 861.198 47.825 Q866.342 43.9361 876.51 43.9361 L886.961 43.9361 L886.961 43.2069 Q886.961 38.0623 883.559 35.2672 Q880.196 32.4315 874.079 32.4315 Q870.191 32.4315 866.504 33.3632 Q862.818 34.295 859.415 36.1584 L859.415 29.2718 Q863.507 27.692 867.355 26.9223 Q871.203 26.1121 874.849 26.1121 Q884.693 26.1121 889.554 31.2163 Q894.415 36.3204 894.415 46.6907 Z" fill="#000000" fill-rule="nonzero" fill-opacity="1"></path><path clip-path="url(#clip020)" d="M916.979 65.7705 L916.979 89.8329 L909.484 89.8329 L909.484 27.2059 L916.979 27.2059 L916.979 34.0924 Q919.328 30.0415 922.893 28.0971 Q926.498 26.1121 931.481 26.1121 Q939.745 26.1121 944.889 32.6746 Q950.074 39.2371 950.074 49.9314 Q950.074 60.6258 944.889 67.1883 Q939.745 73.7508 931.481 73.7508 Q926.498 73.7508 922.893 71.8063 Q919.328 69.8214 916.979 65.7705 M942.337 49.9314 Q942.337 41.7081 938.934 37.0496 Q935.572 32.3505 929.658 32.3505 Q923.744 32.3505 920.341 37.0496 Q916.979 41.7081 916.979 49.9314 Q916.979 58.1548 920.341 62.8538 Q923.744 67.5124 929.658 67.5124 Q935.572 67.5124 938.934 62.8538 Q942.337 58.1548 942.337 49.9314 Z" fill="#000000" fill-rule="nonzero" fill-opacity="1"></path><path clip-path="url(#clip020)" d="M962.43 27.2059 L969.883 27.2059 L969.883 72.576 L962.43 72.576 L962.43 27.2059 M962.43 9.54393 L969.883 9.54393 L969.883 18.9825 L962.43 18.9825 L962.43 9.54393 Z" fill="#000000" fill-rule="nonzero" fill-opacity="1"></path><path clip-path="url(#clip020)" d="M992.852 14.324 L992.852 27.2059 L1008.2 27.2059 L1008.2 32.9987 L992.852 32.9987 L992.852 57.6282 Q992.852 63.1779 994.351 64.7578 Q995.89 66.3376 1000.55 66.3376 L1008.2 66.3376 L1008.2 72.576 L1000.55 72.576 Q991.92 72.576 988.639 69.3758 Q985.358 66.1351 985.358 57.6282 L985.358 32.9987 L979.889 32.9987 L979.889 27.2059 L985.358 27.2059 L985.358 14.324 L992.852 14.324 Z" fill="#000000" fill-rule="nonzero" fill-opacity="1"></path><path clip-path="url(#clip020)" d="M1038.63 49.7694 Q1029.59 49.7694 1026.11 51.8354 Q1022.63 53.9013 1022.63 58.8839 Q1022.63 62.8538 1025.22 65.2034 Q1027.85 67.5124 1032.35 67.5124 Q1038.55 67.5124 1042.27 63.1374 Q1046.04 58.7219 1046.04 51.4303 L1046.04 49.7694 L1038.63 49.7694 M1053.49 46.6907 L1053.49 72.576 L1046.04 72.576 L1046.04 65.6895 Q1043.49 69.8214 1039.68 71.8063 Q1035.87 73.7508 1030.36 73.7508 Q1023.4 73.7508 1019.26 69.8619 Q1015.17 65.9325 1015.17 59.3701 Q1015.17 51.7138 1020.28 47.825 Q1025.42 43.9361 1035.59 43.9361 L1046.04 43.9361 L1046.04 43.2069 Q1046.04 38.0623 1042.64 35.2672 Q1039.28 32.4315 1033.16 32.4315 Q1029.27 32.4315 1025.58 33.3632 Q1021.9 34.295 1018.49 36.1584 L1018.49 29.2718 Q1022.59 27.692 1026.43 26.9223 Q1030.28 26.1121 1033.93 26.1121 Q1043.77 26.1121 1048.63 31.2163 Q1053.49 36.3204 1053.49 46.6907 Z" fill="#000000" fill-rule="nonzero" fill-opacity="1"></path><path clip-path="url(#clip020)" d="M1068.85 9.54393 L1076.3 9.54393 L1076.3 72.576 L1068.85 72.576 L1068.85 9.54393 Z" fill="#000000" fill-rule="nonzero" fill-opacity="1"></path><path clip-path="url(#clip020)" d="M1126.77 18.8205 L1126.77 41.5461 L1137.06 41.5461 Q1142.78 41.5461 1145.9 38.5889 Q1149.01 35.6318 1149.01 30.163 Q1149.01 24.7348 1145.9 21.7777 Q1142.78 18.8205 1137.06 18.8205 L1126.77 18.8205 M1118.59 12.096 L1137.06 12.096 Q1147.23 12.096 1152.42 16.714 Q1157.64 21.2916 1157.64 30.163 Q1157.64 39.1155 1152.42 43.6931 Q1147.23 48.2706 1137.06 48.2706 L1126.77 48.2706 L1126.77 72.576 L1118.59 72.576 L1118.59 12.096 Z" fill="#000000" fill-rule="nonzero" fill-opacity="1"></path><path clip-path="url(#clip020)" d="M1185.19 49.7694 Q1176.16 49.7694 1172.67 51.8354 Q1169.19 53.9013 1169.19 58.8839 Q1169.19 62.8538 1171.78 65.2034 Q1174.41 67.5124 1178.91 67.5124 Q1185.11 67.5124 1188.83 63.1374 Q1192.6 58.7219 1192.6 51.4303 L1192.6 49.7694 L1185.19 49.7694 M1200.06 46.6907 L1200.06 72.576 L1192.6 72.576 L1192.6 65.6895 Q1190.05 69.8214 1186.24 71.8063 Q1182.43 73.7508 1176.93 73.7508 Q1169.96 73.7508 1165.83 69.8619 Q1161.73 65.9325 1161.73 59.3701 Q1161.73 51.7138 1166.84 47.825 Q1171.98 43.9361 1182.15 43.9361 L1192.6 43.9361 L1192.6 43.2069 Q1192.6 38.0623 1189.2 35.2672 Q1185.84 32.4315 1179.72 32.4315 Q1175.83 32.4315 1172.15 33.3632 Q1168.46 34.295 1165.06 36.1584 L1165.06 29.2718 Q1169.15 27.692 1173 26.9223 Q1176.84 26.1121 1180.49 26.1121 Q1190.33 26.1121 1195.19 31.2163 Q1200.06 36.3204 1200.06 46.6907 Z" fill="#000000" fill-rule="nonzero" fill-opacity="1"></path><path clip-path="url(#clip020)" d="M1222.78 14.324 L1222.78 27.2059 L1238.13 27.2059 L1238.13 32.9987 L1222.78 32.9987 L1222.78 57.6282 Q1222.78 63.1779 1224.28 64.7578 Q1225.82 66.3376 1230.48 66.3376 L1238.13 66.3376 L1238.13 72.576 L1230.48 72.576 Q1221.85 72.576 1218.57 69.3758 Q1215.29 66.1351 1215.29 57.6282 L1215.29 32.9987 L1209.82 32.9987 L1209.82 27.2059 L1215.29 27.2059 L1215.29 14.324 L1222.78 14.324 Z" fill="#000000" fill-rule="nonzero" fill-opacity="1"></path><path clip-path="url(#clip020)" d="M1285.65 45.1919 L1285.65 72.576 L1278.2 72.576 L1278.2 45.4349 Q1278.2 38.994 1275.69 35.7938 Q1273.17 32.5936 1268.15 32.5936 Q1262.12 32.5936 1258.63 36.4419 Q1255.15 40.2903 1255.15 46.9338 L1255.15 72.576 L1247.65 72.576 L1247.65 9.54393 L1255.15 9.54393 L1255.15 34.2544 Q1257.82 30.163 1261.43 28.1376 Q1265.07 26.1121 1269.81 26.1121 Q1277.63 26.1121 1281.64 30.9732 Q1285.65 35.7938 1285.65 45.1919 Z" fill="#000000" fill-rule="nonzero" fill-opacity="1"></path><path clip-path="url(#clip020)" d="M1344.47 32.4315 Q1338.48 32.4315 1334.99 37.1306 Q1331.51 41.7891 1331.51 49.9314 Q1331.51 58.0738 1334.95 62.7728 Q1338.43 67.4314 1344.47 67.4314 Q1350.43 67.4314 1353.91 62.7323 Q1357.39 58.0333 1357.39 49.9314 Q1357.39 41.8701 1353.91 37.1711 Q1350.43 32.4315 1344.47 32.4315 M1344.47 26.1121 Q1354.19 26.1121 1359.74 32.4315 Q1365.29 38.7509 1365.29 49.9314 Q1365.29 61.0714 1359.74 67.4314 Q1354.19 73.7508 1344.47 73.7508 Q1334.71 73.7508 1329.16 67.4314 Q1323.65 61.0714 1323.65 49.9314 Q1323.65 38.7509 1329.16 32.4315 Q1334.71 26.1121 1344.47 26.1121 Z" fill="#000000" fill-rule="nonzero" fill-opacity="1"></path><path clip-path="url(#clip020)" d="M1372.3 27.2059 L1380.2 27.2059 L1394.38 65.2844 L1408.56 27.2059 L1416.46 27.2059 L1399.44 72.576 L1389.31 72.576 L1372.3 27.2059 Z" fill="#000000" fill-rule="nonzero" fill-opacity="1"></path><path clip-path="url(#clip020)" d="M1465.55 48.0275 L1465.55 51.6733 L1431.28 51.6733 Q1431.77 59.3701 1435.9 63.421 Q1440.07 67.4314 1447.48 67.4314 Q1451.78 67.4314 1455.79 66.3781 Q1459.84 65.3249 1463.81 63.2184 L1463.81 70.267 Q1459.8 71.9684 1455.59 72.8596 Q1451.37 73.7508 1447.04 73.7508 Q1436.18 73.7508 1429.82 67.4314 Q1423.5 61.1119 1423.5 50.3365 Q1423.5 39.1965 1429.5 32.6746 Q1435.53 26.1121 1445.74 26.1121 Q1454.9 26.1121 1460.2 32.0264 Q1465.55 37.9003 1465.55 48.0275 M1458.1 45.84 Q1458.02 39.7232 1454.66 36.0774 Q1451.33 32.4315 1445.82 32.4315 Q1439.59 32.4315 1435.82 35.9558 Q1432.09 39.4801 1431.52 45.8805 L1458.1 45.84 Z" fill="#000000" fill-rule="nonzero" fill-opacity="1"></path><path clip-path="url(#clip020)" d="M1504.08 34.1734 Q1502.82 33.4443 1501.32 33.1202 Q1499.86 32.7556 1498.08 32.7556 Q1491.76 32.7556 1488.36 36.8875 Q1485 40.9789 1485 48.6757 L1485 72.576 L1477.5 72.576 L1477.5 27.2059 L1485 27.2059 L1485 34.2544 Q1487.35 30.1225 1491.11 28.1376 Q1494.88 26.1121 1500.27 26.1121 Q1501.04 26.1121 1501.97 26.2337 Q1502.9 26.3147 1504.04 26.5172 L1504.08 34.1734 Z" fill="#000000" fill-rule="nonzero" fill-opacity="1"></path><path clip-path="url(#clip020)" d="M1530.2 12.096 L1581.37 12.096 L1581.37 18.9825 L1559.9 18.9825 L1559.9 72.576 L1551.67 72.576 L1551.67 18.9825 L1530.2 18.9825 L1530.2 12.096 Z" fill="#000000" fill-rule="nonzero" fill-opacity="1"></path><path clip-path="url(#clip020)" d="M1586.39 27.2059 L1593.84 27.2059 L1593.84 72.576 L1586.39 72.576 L1586.39 27.2059 M1586.39 9.54393 L1593.84 9.54393 L1593.84 18.9825 L1586.39 18.9825 L1586.39 9.54393 Z" fill="#000000" fill-rule="nonzero" fill-opacity="1"></path><path clip-path="url(#clip020)" d="M1644.76 35.9153 Q1647.56 30.8922 1651.45 28.5022 Q1655.34 26.1121 1660.6 26.1121 Q1667.69 26.1121 1671.54 31.0947 Q1675.39 36.0368 1675.39 45.1919 L1675.39 72.576 L1667.89 72.576 L1667.89 45.4349 Q1667.89 38.913 1665.59 35.7533 Q1663.28 32.5936 1658.54 32.5936 Q1652.74 32.5936 1649.38 36.4419 Q1646.02 40.2903 1646.02 46.9338 L1646.02 72.576 L1638.53 72.576 L1638.53 45.4349 Q1638.53 38.8725 1636.22 35.7533 Q1633.91 32.5936 1629.09 32.5936 Q1623.38 32.5936 1620.01 36.4824 Q1616.65 40.3308 1616.65 46.9338 L1616.65 72.576 L1609.16 72.576 L1609.16 27.2059 L1616.65 27.2059 L1616.65 34.2544 Q1619.2 30.082 1622.77 28.0971 Q1626.33 26.1121 1631.23 26.1121 Q1636.18 26.1121 1639.62 28.6237 Q1643.1 31.1352 1644.76 35.9153 Z" fill="#000000" fill-rule="nonzero" fill-opacity="1"></path><path clip-path="url(#clip020)" d="M1729.06 48.0275 L1729.06 51.6733 L1694.79 51.6733 Q1695.28 59.3701 1699.41 63.421 Q1703.58 67.4314 1711 67.4314 Q1715.29 67.4314 1719.3 66.3781 Q1723.35 65.3249 1727.32 63.2184 L1727.32 70.267 Q1723.31 71.9684 1719.1 72.8596 Q1714.89 73.7508 1710.55 73.7508 Q1699.69 73.7508 1693.33 67.4314 Q1687.01 61.1119 1687.01 50.3365 Q1687.01 39.1965 1693.01 32.6746 Q1699.05 26.1121 1709.25 26.1121 Q1718.41 26.1121 1723.72 32.0264 Q1729.06 37.9003 1729.06 48.0275 M1721.61 45.84 Q1721.53 39.7232 1718.17 36.0774 Q1714.84 32.4315 1709.34 32.4315 Q1703.1 32.4315 1699.33 35.9558 Q1695.6 39.4801 1695.04 45.8805 L1721.61 45.84 Z" fill="#000000" fill-rule="nonzero" fill-opacity="1"></path><polyline clip-path="url(#clip022)" style="stroke:#009af9; stroke-linecap:round; stroke-linejoin:round; stroke-width:4; stroke-opacity:1; fill:none" points="235.808,1386.4 277.752,1314.27 319.697,1206.08 361.642,1097.89 403.586,989.704 445.531,881.515 487.476,791.357 529.42,701.2 571.365,629.074 613.31,556.948 655.254,502.854 697.199,448.76 739.144,412.697 781.089,376.634 823.033,340.571 864.978,304.508 906.923,286.477 948.867,268.445 990.812,250.414 1032.76,232.382 1074.7,214.351 1116.65,196.319 1158.59,178.288 1200.54,160.256 1242.48,160.256 1284.42,160.256 1326.37,160.256 1368.31,160.256 1410.26,160.256 1452.2,160.256 1494.15,160.256 1536.09,160.256 1578.04,160.256 1619.98,160.256 1661.93,160.256 1703.87,160.256 1745.82,160.256 1787.76,160.256 1829.71,160.256 1871.65,160.256 1913.6,160.256 1955.54,160.256 1997.48,160.256 2039.43,160.256 2081.37,160.256 2123.32,160.256 2165.26,160.256 2207.21,160.256 2249.15,160.256 2291.1,160.256 "></polyline>
<path clip-path="url(#clip020)" d="M2116.12 141.518 L2120.4 141.518 L2120.4 162.791 L2133.11 151.611 L2138.55 151.611 L2124.8 163.74 L2139.13 177.536 L2133.58 177.536 L2120.4 164.874 L2120.4 177.536 L2116.12 177.536 L2116.12 141.518 Z" fill="#ff0000" fill-rule="nonzero" fill-opacity="1"></path><path clip-path="url(#clip020)" d="M2163.44 185.407 L2163.44 188.717 L2138.81 188.717 L2138.81 185.407 L2163.44 185.407 Z" fill="#ff0000" fill-rule="nonzero" fill-opacity="1"></path><path clip-path="url(#clip020)" d="M2162.83 142.976 L2192.07 142.976 L2192.07 146.911 L2179.8 146.911 L2179.8 177.536 L2175.1 177.536 L2175.1 146.911 L2162.83 146.911 L2162.83 142.976 Z" fill="#ff0000" fill-rule="nonzero" fill-opacity="1"></path><path clip-path="url(#clip020)" d="M2212.02 156.009 L2241.7 156.009 L2241.7 159.898 L2212.02 159.898 L2212.02 156.009 M2212.02 165.453 L2241.7 165.453 L2241.7 169.388 L2212.02 169.388 L2212.02 165.453 Z" fill="#ff0000" fill-rule="nonzero" fill-opacity="1"></path><path clip-path="url(#clip020)" d="M2281.03 158.902 Q2284.38 159.62 2286.26 161.888 Q2288.16 164.157 2288.16 167.49 Q2288.16 172.606 2284.64 175.407 Q2281.12 178.208 2274.64 178.208 Q2272.46 178.208 2270.15 177.768 Q2267.86 177.351 2265.4 176.495 L2265.4 171.981 Q2267.35 173.115 2269.66 173.694 Q2271.98 174.272 2274.5 174.272 Q2278.9 174.272 2281.19 172.536 Q2283.51 170.8 2283.51 167.49 Q2283.51 164.435 2281.35 162.722 Q2279.22 160.985 2275.4 160.985 L2271.38 160.985 L2271.38 157.143 L2275.59 157.143 Q2279.04 157.143 2280.87 155.777 Q2282.69 154.388 2282.69 151.796 Q2282.69 149.134 2280.8 147.722 Q2278.92 146.286 2275.4 146.286 Q2273.48 146.286 2271.28 146.703 Q2269.08 147.12 2266.45 147.999 L2266.45 143.833 Q2269.11 143.092 2271.42 142.722 Q2273.76 142.351 2275.82 142.351 Q2281.14 142.351 2284.25 144.782 Q2287.35 147.189 2287.35 151.31 Q2287.35 154.18 2285.7 156.171 Q2284.06 158.138 2281.03 158.902 Z" fill="#ff0000" fill-rule="nonzero" fill-opacity="1"></path><path clip-path="url(#clip020)" d="M2297.02 171.657 L2301.91 171.657 L2301.91 177.536 L2297.02 177.536 L2297.02 171.657 Z" fill="#ff0000" fill-rule="nonzero" fill-opacity="1"></path><path clip-path="url(#clip020)" d="M2312.14 142.976 L2330.5 142.976 L2330.5 146.911 L2316.42 146.911 L2316.42 155.384 Q2317.44 155.036 2318.46 154.874 Q2319.48 154.689 2320.5 154.689 Q2326.28 154.689 2329.66 157.86 Q2333.04 161.032 2333.04 166.448 Q2333.04 172.027 2329.57 175.129 Q2326.1 178.208 2319.78 178.208 Q2317.6 178.208 2315.33 177.837 Q2313.09 177.467 2310.68 176.726 L2310.68 172.027 Q2312.76 173.161 2314.99 173.717 Q2317.21 174.272 2319.69 174.272 Q2323.69 174.272 2326.03 172.166 Q2328.37 170.059 2328.37 166.448 Q2328.37 162.837 2326.03 160.731 Q2323.69 158.624 2319.69 158.624 Q2317.81 158.624 2315.94 159.041 Q2314.08 159.458 2312.14 160.337 L2312.14 142.976 Z" fill="#ff0000" fill-rule="nonzero" fill-opacity="1"></path></svg>